<svg width="24" height="18" viewBox="0 0 24 18" fill="none" xmlns="http://www.w3.org/2000/svg">
<g clip-path="url(#clip0_6_645)">
<path d="M0 0H24V18H0V0Z" fill="#00008B"/>
<path d="M1.40625 0L5.98125 3.39375L10.5375 0H12V1.1625L7.5 4.51875L12 7.85625V9H10.5L6 5.64375L1.51875 9H0V7.875L4.48125 4.5375L0 1.2V0H1.40625Z" fill="white"/>
<path d="M7.95 5.26875L12 8.25V9L6.91875 5.26875H7.95ZM4.5 5.64375L4.6125 6.3L1.0125 9H0L4.5 5.64375ZM12 0V0.05625L7.33125 3.58125L7.36875 2.75625L11.0625 0H12ZM0 0L4.48125 3.3H3.35625L0 0.7875V0Z" fill="#FF0000"/>
<path d="M4.51875 0V9H7.51875V0H4.51875ZM0 3V6H12V3H0Z" fill="white"/>
<path d="M0 3.61875V5.41875H12V3.61875H0ZM5.11875 0V9H6.91875V0H5.11875Z" fill="#FF0000"/>
<path d="M19.7625 14.8763L18.9938 14.9738L19.0763 15.7425L18.5213 15.2025L17.97 15.7463L18.045 14.9775L17.2763 14.8875L17.925 14.4675L17.5163 13.8113L18.2513 14.055L18.51 13.3238L18.7763 14.0513L19.5075 13.8L19.1063 14.46L19.7588 14.8763H19.7625ZM19.6238 10.4813L19.725 9.99375L19.3575 9.65625L19.8525 9.6L20.0588 9.14625L20.265 9.6L20.76 9.65625L20.3925 9.99375L20.4938 10.4813L20.0588 10.2338L19.6238 10.4813ZM15.72 8.23125L14.9588 8.31375L15.0263 9.075L14.4863 8.53125L13.9313 9.06L14.0213 8.29875L13.2638 8.1975L13.9125 7.7925L13.5188 7.13625L14.2425 7.39125L14.5125 6.675L14.7638 7.39875L15.4913 7.1625L15.0825 7.81125L15.7238 8.23125H15.72ZM23.3625 7.00125L22.5788 7.1025L22.665 7.88625L22.0988 7.335L21.5363 7.89L21.615 7.1025L20.8313 7.0125L21.495 6.58125L21.0788 5.91L21.8288 6.16125L22.0913 5.41875L22.3613 6.16125L23.1075 5.9025L22.695 6.5775L23.3625 7.00125ZM19.7588 3.87L18.9825 3.95625L19.0538 4.73625L18.5025 4.18125L17.9363 4.72125L18.0263 3.945L17.25 3.84L17.9138 3.4275L17.5125 2.75625L18.2513 3.015L18.525 2.28375L18.78 3.0225L19.5225 2.77875L19.1063 3.43875L19.7588 3.87ZM8.77501 14.4638L7.05751 14.6663L7.23001 16.3875L6.00001 15.1725L4.76251 16.38L4.94626 14.6588L3.22876 14.4413L4.68751 13.5113L3.78751 12.0338L5.42251 12.5963L6.01501 10.9688L6.59626 12.6L8.23501 12.0488L7.32376 13.5188L8.77876 14.46L8.77501 14.4638Z" fill="white"/>
</g>
<defs>
<clipPath id="clip0_6_645">
<rect width="24" height="18" fill="white"/>
</clipPath>
</defs>
</svg>
