<svg width="24" height="18" viewBox="0 0 24 18" fill="none" xmlns="http://www.w3.org/2000/svg">
<g clip-path="url(#clip0_6_1537)">
<path d="M0 0H24V18H0V0Z" fill="#EE1C25"/>
<path d="M2.88004 6.66005L4.50002 1.80005L6.11999 6.66005L1.80005 3.69005H7.19998L2.88004 6.66005Z" fill="#FFFF00"/>
<path d="M9.90636 1.8932L8.2392 2.26265L9.35126 0.966778L9.24219 2.71085L8.31702 1.16682L9.90636 1.8932Z" fill="#FFFF00"/>
<path d="M11.589 4.02553L9.90905 3.71947L11.4366 2.95633L10.6597 4.5216L10.4058 2.7396L11.589 4.02553Z" fill="#FFFF00"/>
<path d="M11.3438 7.01717L9.93472 6.05254L11.6407 5.9788L10.293 7.09108L10.7879 5.36046L11.3438 7.01717Z" fill="#FFFF00"/>
<path d="M9.22461 8.97153L8.29745 7.53753L9.89957 8.12843L8.22679 8.63384L9.35172 7.22868L9.22461 8.97153Z" fill="#FFFF00"/>
</g>
<defs>
<clipPath id="clip0_6_1537">
<rect width="24" height="18" fill="white"/>
</clipPath>
</defs>
</svg>
