<svg width="24" height="18" viewBox="0 0 24 18" fill="none" xmlns="http://www.w3.org/2000/svg">
<g clip-path="url(#clip0_6_1353)">
<path fill-rule="evenodd" clip-rule="evenodd" d="M0 0H34.2V1.3875H0V0ZM0 2.77125H34.2V4.15875H0V2.77125ZM0 5.53875H34.2V6.92625H0V5.53875ZM0 8.30625H34.2V9.69375H0V8.30625ZM0 11.0813H34.2V12.4613H0V11.0813ZM0 13.845H34.2V15.2325H0V13.845ZM0 16.6125H34.2V18H0V16.6125Z" fill="#BD3D44"/>
<path fill-rule="evenodd" clip-rule="evenodd" d="M0 1.38745H34.2V2.7712H0V1.38745ZM0 4.15495H34.2V5.5387H0V4.15495ZM0 6.92245H34.2V8.30995H0V6.92245ZM0 9.6937H34.2V11.0812H0V9.6937ZM0 12.4612H34.2V13.8487H0V12.4612ZM0 15.2287H34.2V16.6162H0V15.2287Z" fill="white"/>
<path fill-rule="evenodd" clip-rule="evenodd" d="M0 0H13.68V9.69375H0V0Z" fill="#192F5D"/>
<path fill-rule="evenodd" clip-rule="evenodd" d="M1.13996 0.412476L1.26746 0.798726H1.66496L1.34246 1.03498L1.46621 1.42123L1.13996 1.18123L0.817456 1.41748L0.937456 1.03498L0.611206 0.798726H1.01996L1.13996 0.412476ZM3.41996 0.412476L3.54371 0.798726H3.94871L3.62246 1.03498L3.74246 1.42123L3.41996 1.18123L3.09371 1.41748L3.21746 1.03498L2.89496 0.798726H3.29246L3.41996 0.412476ZM5.69996 0.412476L5.82371 0.798726H6.22496L5.90246 1.03498L6.02621 1.42123L5.69996 1.18123L5.37371 1.41748L5.49746 1.03498L5.17121 0.798726H5.57621L5.69996 0.412476ZM7.97996 0.412476L8.10371 0.798726H8.50871L8.18246 1.03498L8.30621 1.42123L7.97996 1.18123L7.65371 1.41748L7.78121 1.03498L7.45121 0.798726H7.85246L7.97996 0.412476ZM10.26 0.412476L10.3837 0.798726H10.785L10.4625 1.03498L10.5862 1.42123L10.26 1.18123L9.93371 1.41748L10.0575 1.03498L9.73496 0.798726H10.1362L10.26 0.412476ZM12.54 0.412476L12.6637 0.798726H13.0687L12.7387 1.03498L12.8662 1.42123L12.54 1.18123L12.2137 1.41748L12.3412 1.03498L12.0112 0.798726H12.4162L12.54 0.412476ZM2.27996 1.38748L2.40371 1.76998H2.81246L2.48621 2.00248L2.60621 2.38873L2.28746 2.15248L1.96121 2.38873L2.07746 2.00248L1.76246 1.76998H2.16371L2.27996 1.38748ZM4.55996 1.38748L4.68746 1.76998H5.08871L4.75871 2.00248L4.88621 2.38873L4.55996 2.15248L4.23371 2.38873L4.35746 2.00248L4.03121 1.76998H4.43621L4.55996 1.38748ZM6.83996 1.38748L6.96371 1.76998H7.36871L7.04246 2.00248L7.16621 2.38873L6.83996 2.15248L6.51371 2.38873L6.63746 2.00248L6.31496 1.76998H6.71246L6.83996 1.38748ZM9.11996 1.38748L9.24746 1.76998H9.64871L9.31871 2.00248L9.44621 2.38873L9.11996 2.15248L8.79746 2.38873L8.91746 2.00248L8.59121 1.76998H8.99996L9.11996 1.38748ZM11.4 1.38748L11.5237 1.76998H11.9287L11.6025 2.00248L11.7262 2.38873L11.4 2.15248L11.0737 2.38873L11.1975 2.00248L10.875 1.76998H11.2762L11.4 1.38748ZM1.13996 2.34748L1.26746 2.73748H1.66496L1.34246 2.97373L1.46621 3.35623L1.13996 3.11998L0.817456 3.35623L0.937456 2.97373L0.611206 2.73748H1.01996L1.13996 2.34748ZM3.41996 2.34748L3.54371 2.73748H3.94871L3.62246 2.97373L3.74246 3.35623L3.41996 3.11998L3.09371 3.35623L3.21746 2.96998L2.89496 2.73373H3.29246L3.41996 2.34748ZM5.69996 2.34748L5.82371 2.73373H6.22496L5.90246 2.96998L6.02621 3.35248L5.69996 3.11623L5.37371 3.35248L5.49746 2.96623L5.17121 2.72998H5.57621L5.69996 2.34748ZM7.97996 2.34748L8.10371 2.73373H8.50871L8.18246 2.96998L8.30621 3.35248L7.97996 3.11623L7.65371 3.35248L7.78121 2.96623L7.45121 2.72998H7.85246L7.97996 2.34748ZM10.26 2.34748L10.3837 2.73373H10.785L10.4625 2.96998L10.5862 3.35248L10.26 3.11623L9.93371 3.35248L10.0575 2.96623L9.73496 2.72998H10.1362L10.26 2.34748ZM12.54 2.34748L12.6637 2.73373H13.0687L12.7387 2.96998L12.8662 3.35248L12.54 3.11623L12.2137 3.35248L12.3412 2.96623L12.0112 2.72998H12.4162L12.54 2.34748ZM2.27996 3.32248L2.40371 3.70498H2.81246L2.48621 3.94123L2.60996 4.32748L2.28371 4.08748L1.95746 4.32373L2.08121 3.94123L1.75871 3.70498H2.15996L2.27996 3.32248ZM4.55996 3.32248L4.68746 3.70498H5.08871L4.75871 3.94123L4.88621 4.32748L4.55996 4.08748L4.23371 4.32373L4.35746 3.94123L4.03121 3.70498H4.43621L4.55996 3.32248ZM6.83996 3.32248L6.96371 3.70498H7.36871L7.04246 3.94123L7.16621 4.32748L6.83996 4.08748L6.51371 4.32373L6.63746 3.94123L6.31496 3.70498H6.71246L6.83996 3.32248ZM9.11996 3.32248L9.24746 3.70498H9.64871L9.32246 3.94123L9.44621 4.32748L9.11996 4.08748L8.79746 4.32373L8.91746 3.94123L8.59121 3.70498H8.99996L9.11996 3.32248ZM11.4 3.32248L11.5237 3.70498H11.9287L11.6025 3.94123L11.7262 4.32748L11.4 4.08748L11.0737 4.32373L11.1975 3.94123L10.875 3.70498H11.2762L11.4 3.32248ZM1.13996 4.29373L1.26746 4.67623H1.66496L1.34246 4.91248L1.46621 5.29873L1.13996 5.05873L0.817456 5.29498L0.937456 4.91248L0.611206 4.67623H1.01996L1.13996 4.29373ZM3.41996 4.29373L3.54371 4.67623H3.94871L3.62246 4.91248L3.74246 5.29498L3.41996 5.05873L3.09371 5.29498L3.21746 4.91248L2.89496 4.67623H3.29246L3.41996 4.29373ZM5.69996 4.29373L5.82371 4.67623H6.22496L5.90246 4.91248L6.02621 5.29873L5.69996 5.05873L5.37371 5.29498L5.49746 4.91248L5.17121 4.67623H5.57621L5.69996 4.29373ZM7.97996 4.29373L8.10371 4.67623H8.50871L8.18246 4.91248L8.30621 5.29873L7.97996 5.05873L7.65371 5.29498L7.78121 4.91248L7.45121 4.67623H7.85246L7.97996 4.29373ZM10.26 4.29373L10.3837 4.67623H10.785L10.4625 4.91248L10.5862 5.29873L10.26 5.05873L9.93371 5.29498L10.0575 4.91248L9.73496 4.67623H10.1362L10.26 4.29373ZM12.54 4.29373L12.6637 4.67623H13.0687L12.7387 4.91248L12.8662 5.29873L12.54 5.05873L12.2137 5.29498L12.3375 4.91248L12.0075 4.67623H12.4125L12.54 4.29373ZM2.27996 5.26123L2.40371 5.64748H2.81246L2.48621 5.87998L2.60996 6.26623L2.28371 6.02623L1.95746 6.26623L2.08121 5.87998L1.75871 5.64373H2.15996L2.27996 5.26123ZM4.55996 5.26123L4.68746 5.64748H5.08871L4.75871 5.87998L4.88621 6.26623L4.55996 6.02623L4.23371 6.26623L4.35746 5.87998L4.03121 5.64373H4.43621L4.55996 5.26123ZM6.83996 5.26123L6.96371 5.64748H7.36871L7.04246 5.87998L7.16621 6.26623L6.83996 6.02623L6.51371 6.26623L6.63746 5.87998L6.31496 5.64373H6.71246L6.83996 5.26123ZM9.11996 5.26123L9.24746 5.64748H9.64871L9.32246 5.87998L9.44621 6.26623L9.11996 6.02623L8.79746 6.26623L8.91746 5.87998L8.59121 5.64373H8.99996L9.11996 5.26123ZM11.4 5.26123L11.5237 5.64748H11.9287L11.6025 5.87998L11.7262 6.26623L11.4 6.02623L11.0737 6.26623L11.1975 5.87998L10.875 5.64373H11.2762L11.4 5.26123ZM1.13996 6.22873L1.26746 6.61498H1.66496L1.34246 6.85123L1.46621 7.22998L1.13996 6.99748L0.817456 7.22998L0.937456 6.84748L0.611206 6.61123H1.01996L1.13996 6.22873ZM3.41996 6.22873L3.54371 6.61498H3.94871L3.62246 6.85123L3.74621 7.22998L3.41996 6.99748L3.09371 7.22998L3.22121 6.84748L2.89496 6.61123H3.29246L3.41996 6.22873ZM5.69996 6.22873L5.82371 6.61498H6.22496L5.90246 6.85123L6.02621 7.22998L5.69996 6.99748L5.37371 7.22998L5.49746 6.84748L5.17121 6.61123H5.57621L5.69996 6.22873ZM7.97996 6.22873L8.10371 6.61498H8.50871L8.18246 6.85123L8.30621 7.22998L7.97996 6.99748L7.65371 7.22998L7.78121 6.84748L7.45121 6.61123H7.85246L7.97996 6.22873ZM10.26 6.22873L10.3837 6.61498H10.785L10.4625 6.85123L10.5862 7.22998L10.26 6.99748L9.93371 7.22998L10.0575 6.84748L9.73496 6.61123H10.1362L10.26 6.22873ZM12.54 6.22873L12.6637 6.61498H13.0687L12.7387 6.85123L12.8662 7.22998L12.54 6.99748L12.2137 7.22998L12.3412 6.84748L12.0112 6.61123H12.4162L12.54 6.22873ZM2.27996 7.19998L2.40371 7.58248H2.81246L2.48621 7.81873L2.60996 8.20498L2.28371 7.96498L1.95746 8.20123L2.08121 7.81873L1.75871 7.58248H2.15996L2.27996 7.19998ZM4.55996 7.19998L4.68746 7.58248H5.08871L4.75871 7.81873L4.88621 8.20498L4.55996 7.96498L4.23371 8.20123L4.35746 7.81873L4.03121 7.58248H4.43621L4.55996 7.19998ZM6.83996 7.19998L6.96371 7.58248H7.36871L7.04246 7.81873L7.16621 8.20498L6.83996 7.96498L6.51371 8.20123L6.63746 7.81873L6.31496 7.58248H6.71246L6.83996 7.19998ZM9.11996 7.19998L9.24746 7.58248H9.64871L9.32246 7.81873L9.44621 8.20498L9.11996 7.96498L8.79746 8.20123L8.91746 7.81873L8.59121 7.58248H8.99996L9.11996 7.19998ZM11.4 7.19998L11.5237 7.58248H11.9287L11.6025 7.81873L11.7262 8.20498L11.4 7.96498L11.0737 8.20123L11.1975 7.81873L10.875 7.58248H11.2762L11.4 7.19998ZM1.13996 8.17123L1.26746 8.55373H1.66496L1.34246 8.78998L1.46621 9.17248L1.13996 8.93623L0.817456 9.17248L0.937456 8.78623L0.611206 8.54998H1.01996L1.13996 8.17123ZM3.41996 8.17123L3.54371 8.55373H3.94871L3.62246 8.78998L3.74621 9.17248L3.41996 8.93623L3.09371 9.17248L3.22121 8.78623L2.89496 8.54998H3.29246L3.41996 8.17123ZM5.69996 8.17123L5.82371 8.55373H6.22496L5.90996 8.78998L6.03371 9.17248L5.70746 8.93623L5.38121 9.17248L5.50496 8.78623L5.17871 8.54998H5.58371L5.69996 8.17123ZM7.97996 8.17123L8.10371 8.55373H8.50871L8.18246 8.78998L8.30621 9.17248L7.97996 8.93623L7.65371 9.17248L7.78121 8.78623L7.45121 8.54998H7.85246L7.97996 8.17123ZM10.26 8.17123L10.3837 8.55373H10.785L10.4625 8.78998L10.5862 9.17248L10.26 8.93623L9.93371 9.17248L10.0575 8.78623L9.73496 8.54998H10.1362L10.26 8.17123ZM12.54 8.17123L12.6637 8.55373H13.0687L12.7387 8.78998L12.8662 9.17248L12.54 8.93623L12.2137 9.17248L12.3412 8.78623L12.0112 8.54998H12.4162L12.54 8.17123Z" fill="white"/>
</g>
<defs>
<clipPath id="clip0_6_1353">
<rect width="24" height="18" fill="white"/>
</clipPath>
</defs>
</svg>
