<svg width="220" height="220" viewBox="0 0 220 220" fill="none" xmlns="http://www.w3.org/2000/svg">
<path d="M110 220C170.751 220 220 170.751 220 110C220 49.2487 170.751 0 110 0C49.2487 0 0 49.2487 0 110C0 170.751 49.2487 220 110 220Z" stroke="#C1C7CD"/>
<path d="M110 198C158.601 198 198 158.601 198 110C198 61.3989 158.601 22 110 22C61.3989 22 22 61.3989 22 110C22 158.601 61.3989 198 110 198Z" stroke="#C1C7CD"/>
<path d="M110 176C146.451 176 176 146.451 176 110C176 73.5492 146.451 44 110 44C73.5492 44 44 73.5492 44 110C44 146.451 73.5492 176 110 176Z" stroke="#C1C7CD"/>
<path d="M110 154C134.301 154 154 134.301 154 110C154 85.6995 134.301 66 110 66C85.6995 66 66 85.6995 66 110C66 134.301 85.6995 154 110 154Z" stroke="#C1C7CD"/>
<path d="M110 132C122.15 132 132 122.15 132 110C132 97.8497 122.15 88 110 88C97.8497 88 88 97.8497 88 110C88 122.15 97.8497 132 110 132Z" stroke="#C1C7CD"/>
<path d="M198.159 71.3726C203.354 83.2294 206.104 96.0123 206.244 108.957C206.385 121.901 203.912 134.74 198.976 146.707C194.039 158.674 186.739 169.521 177.512 178.601C168.286 187.681 157.323 194.807 145.278 199.552L110 110L198.159 71.3726Z" fill="#878D96" stroke="white"/>
<path d="M17.9185 81.9811C23.9017 62.3179 36.0222 45.0863 52.5057 32.8089C68.9892 20.5315 88.97 13.853 109.523 13.7512L110 110L17.9185 81.9811Z" fill="#697077" stroke="white"/>
<path d="M109.624 35.5567C124.07 35.5567 138.201 39.7812 150.277 47.7102C162.353 55.6393 171.846 66.9266 177.589 80.1825L109.624 109.624L109.624 35.5567Z" fill="#A2A9B0" stroke="white"/>
<path d="M136.866 178.5C124.643 183.334 111.354 184.829 98.3632 182.83C85.3721 180.832 73.1468 175.413 62.9421 167.129L109.624 109.624L136.866 178.5Z" fill="#C1C7CD" stroke="white"/>
<path d="M87.5619 136.533C82.2326 132.183 78.3119 126.351 76.2951 119.774C74.2782 113.198 74.2556 106.17 76.2301 99.5806L109.57 109.57L87.5619 136.533Z" fill="#DDE1E6" stroke="white"/>
</svg>
