<svg width="220" height="184" viewBox="0 0 220 184" fill="none" xmlns="http://www.w3.org/2000/svg">
<path d="M109.999 0C131.755 1.29718e-07 153.023 6.45114 171.113 18.5381C189.202 30.625 203.301 47.8054 211.626 67.9053C219.952 88.0051 222.13 110.122 217.886 131.46C214.315 149.415 206.33 166.14 194.722 180.158C191.089 184.545 184.517 184.516 180.489 180.489C176.462 176.461 176.515 169.964 180.055 165.502C192.15 150.257 199.374 130.972 199.374 110C199.374 60.6396 159.36 20.625 109.999 20.625C60.6389 20.625 20.6243 60.6396 20.6243 110C20.6244 130.973 27.8484 150.258 39.9437 165.503C43.4834 169.965 43.5374 176.462 39.5101 180.489C35.4828 184.517 28.9107 184.545 25.2782 180.158C13.6699 166.141 5.68523 149.416 2.1136 131.46C-2.13075 110.122 0.0478239 88.0051 8.37337 67.9053C16.699 47.8054 30.7976 30.625 48.887 18.5381C66.9763 6.45126 88.2436 8.02015e-05 109.999 0Z" fill="#DDE1E6"/>
</svg>
