<svg width="24" height="18" viewBox="0 0 24 18" fill="none" xmlns="http://www.w3.org/2000/svg">
<g clip-path="url(#clip0_6_658)">
<path d="M0 0H24V18H0V0Z" fill="#EE1C25"/>
<path d="M2.88004 6.65999L4.50002 1.79999L6.11999 6.65999L1.80005 3.68999H7.19998L2.88004 6.65999Z" fill="#FFFF00"/>
<path d="M9.90642 1.89314L8.23926 2.26259L9.35132 0.966717L9.24225 2.71079L8.31708 1.16676L9.90642 1.89314Z" fill="#FFFF00"/>
<path d="M11.589 4.02553L9.90902 3.71947L11.4366 2.95633L10.6597 4.5216L10.4057 2.7396L11.589 4.02553Z" fill="#FFFF00"/>
<path d="M11.3437 7.01717L9.93469 6.05254L11.6407 5.9788L10.2929 7.09108L10.7879 5.36046L11.3437 7.01717Z" fill="#FFFF00"/>
<path d="M9.22458 8.97153L8.29742 7.53753L9.89954 8.12843L8.22676 8.63384L9.35169 7.22868L9.22458 8.97153Z" fill="#FFFF00"/>
</g>
<defs>
<clipPath id="clip0_6_658">
<rect width="24" height="18" fill="white"/>
</clipPath>
</defs>
</svg>
