<svg width="188" height="184" viewBox="0 0 188 184" fill="none" xmlns="http://www.w3.org/2000/svg">
<path d="M71.506 6.95544C85.2819 1.8092 99.95 -0.522644 114.643 0.0980144C129.336 0.718705 143.755 4.27985 157.048 10.5697C167.231 15.3879 176.595 21.7327 184.823 29.3678C188.993 33.2377 188.596 39.7908 184.353 43.581C180.11 47.3712 173.633 46.9521 169.38 43.1734C163.196 37.6794 156.267 33.0599 148.786 29.4574C148.756 29.443 148.726 29.4288 148.696 29.4144C148.543 29.3407 148.39 29.2656 148.235 29.1927C148.114 29.1351 147.991 29.0789 147.869 29.0218C147.792 28.9855 147.714 28.9496 147.636 28.9134C147.4 28.8041 147.164 28.6955 146.928 28.5882C146.771 28.5171 146.614 28.4466 146.457 28.3763C146.322 28.3161 146.188 28.2552 146.053 28.1957C145.79 28.0796 145.526 27.9655 145.262 27.8519C145.217 27.8326 145.172 27.8126 145.127 27.7933C141.758 26.3518 138.282 25.1116 134.715 24.0873C134.693 24.0808 134.67 24.0742 134.648 24.0677C134.346 23.9813 134.043 23.8972 133.739 23.8138C133.672 23.7954 133.605 23.7765 133.538 23.7582C133.35 23.7069 133.161 23.6568 132.973 23.6068C132.774 23.5539 132.575 23.5011 132.376 23.4496C132.306 23.4315 132.236 23.4138 132.165 23.3959C126.16 21.859 119.997 20.9459 113.774 20.683C105.348 20.327 96.9325 21.1665 88.7746 23.1605C88.7479 23.167 88.7212 23.1735 88.6945 23.18C88.4478 23.2406 88.2015 23.3029 87.9552 23.3656C87.7773 23.4107 87.5995 23.4561 87.422 23.5023C87.2787 23.5397 87.1355 23.5775 86.9923 23.6156C86.7566 23.6782 86.5212 23.7415 86.2863 23.806C86.1941 23.8314 86.1021 23.8575 86.0099 23.8832C85.7105 23.9664 85.4116 24.0508 85.1134 24.1371C85.091 24.1436 85.0685 24.1501 85.046 24.1566C84.7305 24.2482 84.4158 24.3419 84.1017 24.4369C84.035 24.4571 83.9682 24.4771 83.9015 24.4974C81.0991 25.3518 78.355 26.3396 75.6769 27.4545C75.6307 27.4737 75.5844 27.4928 75.5382 27.5121C74.9415 27.7617 74.3481 28.0176 73.758 28.2797C73.6295 28.3366 73.5013 28.394 73.3732 28.4515C73.2415 28.5108 73.11 28.5704 72.9787 28.6302C72.7441 28.737 72.5101 28.8448 72.2765 28.9535C72.2286 28.9758 72.1808 28.9984 72.133 29.0209C63.4946 33.0603 55.5434 38.4619 48.591 45.0336C40.1517 53.0107 33.35 62.5534 28.5626 73.1263C26.5976 77.4593 24.9687 81.9769 23.7082 86.6459C21.7621 93.8364 20.7178 101.259 20.6125 108.743C20.501 116.662 21.4433 124.542 23.3996 132.18C23.4413 132.343 23.4839 132.506 23.5265 132.669C23.5731 132.847 23.6194 133.025 23.6671 133.203C24.9522 137.996 26.6261 142.63 28.6525 147.07C31.657 153.663 35.4483 159.86 39.9385 165.526C43.4721 169.985 43.526 176.474 39.5031 180.497C35.4801 184.52 28.9152 184.549 25.2861 180.167C18.1259 171.523 12.3179 161.817 8.08022 151.379C2.54826 137.754 -0.196041 123.157 0.010889 108.453C0.217838 93.7482 3.37121 79.2345 9.28433 65.7699C15.1976 52.3052 23.7514 40.1628 34.4386 30.0609C45.1258 19.959 57.7299 12.1018 71.506 6.95544Z" fill="#878D96"/>
</svg>
