<svg width="220" height="220" viewBox="0 0 220 220" fill="none" xmlns="http://www.w3.org/2000/svg">
<path d="M156.312 209.775C138.668 217.965 119.167 221.33 99.7977 219.526C80.4287 217.722 61.8846 210.813 46.0561 199.505C30.2276 188.197 17.681 172.894 9.69555 155.155C1.71007 137.417 -1.42864 117.879 0.599456 98.5317L33.4196 101.972C31.9999 115.515 34.197 129.192 39.7869 141.609C45.3767 154.026 54.1593 164.738 65.2392 172.654C76.3192 180.569 89.3001 185.405 102.858 186.668C116.417 187.931 130.067 185.576 142.419 179.843L156.312 209.775Z" fill="#878D96" stroke="white"/>
<path d="M220 110C220 130.963 214.01 151.489 202.735 169.162C191.461 186.834 175.371 200.918 156.361 209.753L142.453 179.827C155.76 173.642 167.023 163.784 174.915 151.413C182.807 139.042 187 124.674 187 110H220Z" fill="#A2A9B0" stroke="white"/>
<path d="M0.576104 98.7565C2.56793 79.3713 9.67382 60.8631 21.1668 45.1257C32.6597 29.3882 48.1271 16.9864 65.9865 9.18909L79.1905 39.4323C66.6889 44.8904 55.8618 53.5717 47.8167 64.5879C39.7717 75.6041 34.7975 88.5598 33.4033 102.13L0.576104 98.7565Z" fill="#697077" stroke="white"/>
<path d="M65.9721 9.19549C82.7372 1.87308 101.064 -1.15231 119.293 0.393252C137.522 1.93881 155.078 8.0065 170.371 18.047C185.664 28.0875 198.211 41.7837 206.877 57.8956C215.542 74.0075 220.053 92.0263 219.999 110.321L187 110.224C187.037 97.4184 183.88 84.8052 177.814 73.5269C171.748 62.2485 162.965 52.6612 152.26 45.6329C141.554 38.6045 129.265 34.3571 116.505 33.2753C103.745 32.1934 90.916 34.3111 79.1804 39.4368L65.9721 9.19549Z" fill="#C1C7CD" stroke="white"/>
<path d="M186.126 117.398C184.253 136.669 175.141 154.513 160.628 167.33C146.115 180.146 127.281 186.981 107.926 186.456L108.59 161.99C121.751 162.347 134.558 157.699 144.427 148.984C154.296 140.269 160.492 128.135 161.766 115.031L186.126 117.398Z" fill="#697077" stroke="white"/>
<path d="M107.729 186.451C96.9453 186.13 86.3518 183.532 76.6437 178.827C66.9357 174.123 58.3328 167.417 51.3999 159.152C44.4671 150.886 39.3613 141.248 36.4177 130.869C33.4741 120.49 32.7594 109.606 34.3206 98.9318C35.8817 88.2573 39.6833 78.0339 45.4758 68.9328C51.2682 59.8317 58.9205 52.059 67.9299 46.1251C76.9394 40.1912 87.1022 36.2303 97.751 34.5026C108.4 32.7749 119.294 33.3194 129.717 36.1005L123.408 59.7483C116.32 57.8572 108.912 57.4869 101.671 58.6617C94.4295 59.8365 87.5187 62.5299 81.3923 66.565C75.2659 70.6001 70.0624 75.8855 66.1235 82.0742C62.1846 88.263 59.5995 95.2149 58.538 102.474C57.4764 109.732 57.9624 117.133 59.964 124.191C61.9657 131.248 65.4376 137.803 70.1519 143.423C74.8663 149.044 80.7162 153.603 87.3177 156.803C93.9192 160.002 101.123 161.768 108.455 161.986L107.729 186.451Z" fill="#DDE1E6" stroke="white"/>
<path d="M129.826 36.1297C147.288 40.8163 162.525 51.5373 172.834 66.3904C183.142 81.2435 187.856 99.2683 186.138 117.266L161.774 114.941C162.942 102.702 159.737 90.4455 152.727 80.3454C145.717 70.2453 135.356 62.955 123.482 59.7681L129.826 36.1297Z" fill="#878D96" stroke="white"/>
</svg>
